<mxfile host="app.diagrams.net" modified="2021-01-19T01:39:56.622Z" agent="5.0 (Macintosh; Intel Mac OS X 10_13_6) AppleWebKit/537.36 (KHTML, like Gecko) Chrome/87.0.4280.141 Safari/537.36" etag="k9LK7hfGagchxS5UkZsw" version="14.2.4" type="github">
  <diagram id="iBVjDvxEJwsww9wV77Ba" name="Page-1">
    <mxGraphModel dx="1426" dy="746" grid="1" gridSize="10" guides="1" tooltips="1" connect="1" arrows="1" fold="1" page="1" pageScale="1" pageWidth="827" pageHeight="1169" math="0" shadow="0">
      <root>
        <mxCell id="0" />
        <mxCell id="1" parent="0" />
        <mxCell id="IAyeYNaABHgEUa5k1j_U-6" value="" style="edgeStyle=orthogonalEdgeStyle;rounded=0;orthogonalLoop=1;jettySize=auto;html=1;entryX=0;entryY=0.5;entryDx=0;entryDy=0;" edge="1" parent="1" source="IAyeYNaABHgEUa5k1j_U-1" target="IAyeYNaABHgEUa5k1j_U-2">
          <mxGeometry relative="1" as="geometry">
            <Array as="points" />
          </mxGeometry>
        </mxCell>
        <mxCell id="IAyeYNaABHgEUa5k1j_U-1" value="uin" style="rounded=0;whiteSpace=wrap;html=1;fillColor=#f8cecc;strokeColor=#b85450;" vertex="1" parent="1">
          <mxGeometry x="150" y="180" width="50" height="20" as="geometry" />
        </mxCell>
        <mxCell id="IAyeYNaABHgEUa5k1j_U-2" value="id1" style="rounded=0;whiteSpace=wrap;html=1;fillColor=#d5e8d4;strokeColor=#82b366;" vertex="1" parent="1">
          <mxGeometry x="230" y="180" width="30" height="20" as="geometry" />
        </mxCell>
        <mxCell id="IAyeYNaABHgEUa5k1j_U-3" value="id2" style="rounded=0;whiteSpace=wrap;html=1;fillColor=#d5e8d4;strokeColor=#82b366;" vertex="1" parent="1">
          <mxGeometry x="260" y="180" width="30" height="20" as="geometry" />
        </mxCell>
        <mxCell id="IAyeYNaABHgEUa5k1j_U-4" value="..." style="rounded=0;whiteSpace=wrap;html=1;fillColor=#d5e8d4;strokeColor=#82b366;" vertex="1" parent="1">
          <mxGeometry x="290" y="180" width="30" height="20" as="geometry" />
        </mxCell>
        <mxCell id="IAyeYNaABHgEUa5k1j_U-5" value="idn" style="rounded=0;whiteSpace=wrap;html=1;fillColor=#d5e8d4;strokeColor=#82b366;" vertex="1" parent="1">
          <mxGeometry x="320" y="180" width="30" height="20" as="geometry" />
        </mxCell>
      </root>
    </mxGraphModel>
  </diagram>
</mxfile>
